<svg viewBox="0 0 48 48" xmlns="http://www.w3.org/2000/svg">
  <defs>
    <linearGradient id="openclawGrad" x1="0%" y1="0%" x2="100%" y2="100%">
      <stop offset="0%" stop-color="#ff4d4d"/>
      <stop offset="100%" stop-color="#e63946"/>
    </linearGradient>
  </defs>
  <!-- Lobster body -->
  <ellipse cx="24" cy="28" rx="12" ry="10" fill="url(#openclawGrad)"/>
  <!-- Head -->
  <circle cx="24" cy="16" r="8" fill="url(#openclawGrad)"/>
  <!-- Eyes -->
  <circle cx="20" cy="14" r="3" fill="#0a0a0f"/>
  <circle cx="28" cy="14" r="3" fill="#0a0a0f"/>
  <circle cx="20.5" cy="13.5" r="1.2" fill="#fff"/>
  <circle cx="28.5" cy="13.5" r="1.2" fill="#fff"/>
  <!-- Antennae -->
  <path d="M18 10 Q14 4 10 2" stroke="#e63946" stroke-width="2" fill="none" stroke-linecap="round"/>
  <path d="M30 10 Q34 4 38 2" stroke="#e63946" stroke-width="2" fill="none" stroke-linecap="round"/>
  <!-- Left claw -->
  <ellipse cx="6" cy="24" rx="5" ry="4" fill="url(#openclawGrad)"/>
  <path d="M4 20 L2 18 M8 20 L10 18" stroke="#e63946" stroke-width="2" stroke-linecap="round"/>
  <!-- Right claw -->
  <ellipse cx="42" cy="24" rx="5" ry="4" fill="url(#openclawGrad)"/>
  <path d="M40 20 L38 18 M44 20 L46 18" stroke="#e63946" stroke-width="2" stroke-linecap="round"/>
  <!-- Arms connecting claws -->
  <path d="M12 24 Q10 24 11 24" stroke="#e63946" stroke-width="3" stroke-linecap="round"/>
  <path d="M36 24 Q38 24 37 24" stroke="#e63946" stroke-width="3" stroke-linecap="round"/>
  <!-- Tail segments -->
  <ellipse cx="24" cy="40" rx="6" ry="4" fill="#e63946"/>
  <path d="M20 44 L18 47 M24 44 L24 48 M28 44 L30 47" stroke="#ff4d4d" stroke-width="2" stroke-linecap="round"/>
</svg>