<svg xmlns="http://www.w3.org/2000/svg" viewBox="0 0 48 48" fill="none">
  <rect width="48" height="48" rx="8" fill="#F38020"/>
  <path d="M31.2 31.2l1.44-4.8c.24-.84.12-1.56-.36-2.16-.48-.6-1.2-.96-2.04-.96H14.88c-.24 0-.36-.12-.48-.24-.12-.12-.12-.24-.12-.36.12-.36.24-.48.6-.6l15.84-.12c1.68 0 3.24-.84 4.2-2.28.48-.72.84-1.56 1.08-2.4l.72-2.52c.12-.36 0-.6-.24-.72-.6-.24-1.32-.48-2.04-.6a12 12 0 0 0-18.96 7.44c-1.32-.48-2.76-.36-3.96.48a4.68 4.68 0 0 0-1.92 3.36c0 .24 0 .36.12.48.12.12.24.12.36.12h18.96c.24 0 .36.12.48.24.12.12.12.24.12.36l-1.44 4.56c-.12.36 0 .6.36.72h2.4c.24 0 .48-.12.6-.36z" fill="white"/>
</svg>
