<svg xmlns="http://www.w3.org/2000/svg" viewBox="0 0 48 48" fill="none">
  <rect width="48" height="48" rx="8" fill="#FF7A59"/>
  <path d="M31 21.5V17a2.5 2.5 0 0 0-2-2.45V12a1 1 0 1 0-2 0v2.55A2.5 2.5 0 0 0 25 17v4.5a6 6 0 1 0 6 0zm-3 10.5a4 4 0 1 1 0-8 4 4 0 0 1 0 8z" fill="white"/>
  <circle cx="20" cy="24" r="2.5" fill="white"/>
  <path d="M22.5 24h2.5" stroke="white" stroke-width="2"/>
  <circle cx="36" cy="30" r="2" fill="white"/>
  <path d="M31 28l3.5 1.5" stroke="white" stroke-width="1.5"/>
</svg>
