<svg xmlns="http://www.w3.org/2000/svg" viewBox="0 0 48 48" fill="none">
  <rect width="48" height="48" rx="8" fill="#000000"/>
  <path d="M14.22 11.87l14.2-1.05c1.75-.14 2.19-.05 3.28.71l4.53 3.19c.76.52.99.66.99 1.23v20.67c0 1.38-.52 2.19-2.28 2.33l-16.53 1c-1.33.1-1.95-.14-2.61-.95l-3.85-5.04c-.71-.95-.99-1.66-.99-2.52V14.1c0-1.09.52-2.09 2.28-2.23z" fill="white"/>
  <path d="M28.08 15.51v15.67l-10.5.71V16.17l10.5-.66z" fill="black"/>
  <path d="M19.8 14.82c0-.67.48-.95 1.14-1l14.16-1.05c.66-.05.76.38.76.76v2.38c0 .66-.47.95-1.14 1l-13.68.95c-.67.05-1.24-.28-1.24-.95v-2.09z" fill="white" fill-opacity="0.2"/>
</svg>
