<svg xmlns="http://www.w3.org/2000/svg" viewBox="0 0 48 48" fill="none">
  <rect width="48" height="48" rx="8" fill="#96BF48"/>
  <path d="M32 14s-.5 0-.5.5c0 0-1-.2-2.5-.2-1.2-1.8-3-2.3-4-2.3h-.5l-1-1.5c-.5-.2-1-.2-1-.2L22 12c-.2 0-.5.2-.5.5-.5.2-1 .5-1.5 1-1 1-1.5 2.5-2 4-.5 0-1.5 0-2 .5 0 0 0 .5.5.5v.5c-1 0-2 .5-2 .5v20l14 3 6-1.5V14h-2zm-9-1.5c.5 0 1 .2 1.5.5l-3 1c.5-1 1-1.5 1.5-1.5zm-2 3l4-1c0 .5-.5 1.5-.5 2.5l-4 1c.2-1 .5-2 .5-2.5zm-1 4l4.5-1v.5l-5 1.5c.2-.5.5-1 .5-1zm3 16.5l-5-1V20l4.5-1.5v1c0 .5.5.5.5.5v16z" fill="white"/>
</svg>
