<svg xmlns="http://www.w3.org/2000/svg" viewBox="0 0 48 48" fill="none">
  <rect width="48" height="48" rx="8" fill="#4A154B"/>
  <path d="M17.2 26.8a2.8 2.8 0 1 1-2.8 2.8v-2.8h2.8zm1.4 0a2.8 2.8 0 1 1 5.6 0v7a2.8 2.8 0 1 1-5.6 0v-7z" fill="#E01E5A"/>
  <path d="M21.4 17.2a2.8 2.8 0 1 1-2.8-2.8h2.8v2.8zm0 1.4a2.8 2.8 0 1 1 0 5.6h-7a2.8 2.8 0 1 1 0-5.6h7z" fill="#36C5F0"/>
  <path d="M30.8 21.4a2.8 2.8 0 1 1 2.8-2.8v2.8h-2.8zm-1.4 0a2.8 2.8 0 1 1-5.6 0v-7a2.8 2.8 0 1 1 5.6 0v7z" fill="#2EB67D"/>
  <path d="M26.6 30.8a2.8 2.8 0 1 1 2.8 2.8h-2.8v-2.8zm0-1.4a2.8 2.8 0 1 1 0-5.6h7a2.8 2.8 0 1 1 0 5.6h-7z" fill="#ECB22E"/>
</svg>
